<svg xmlns="http://www.w3.org/2000/svg" xmlns:xlink="http://www.w3.org/1999/xlink" xml:space="preserve" version="1.1" style="shape-rendering:geometricPrecision;text-rendering:geometricPrecision;image-rendering:optimizeQuality;" viewBox="0 0 697 885" x="0px" y="0px" fill-rule="evenodd" clip-rule="evenodd"><defs><style type="text/css">
   
    .fil0 {fill:black}
   
  </style></defs><g><path class="fil0" d="M697 212l-183 0 0 -79c-166,-57 -62,-21 -391,-133l0 418c-96,0 -30,0 -123,0l0 290c232,0 465,0 697,0l0 -496zm-213 459l0 -513c-114,-39 -178,-61 -331,-113l0 373 123 0 0 253c155,0 51,0 208,0zm-421 -190l52 0 0 34 -52 0 0 -34zm0 132l52 0 0 34 -52 0 0 -34zm99 0l51 0 0 34 -51 0 0 -34zm-99 -66l52 0 0 34 -52 0 0 -34zm99 0l51 0 0 34 -51 0 0 -34zm0 -66l51 0 0 34 -51 0 0 -34zm396 -207l69 0 0 48 -69 0 0 -48zm0 323l69 0 0 48 -69 0 0 -48zm0 -81l69 0 0 48 -69 0 0 -48zm0 -80l69 0 0 47 -69 0 0 -47zm0 -81l69 0 0 48 -69 0 0 -48z"/><rect class="fil0" x="174" y="209" width="70.4166" height="70.4166"/><rect class="fil0" x="283" y="209" width="70.4166" height="70.4166"/><rect class="fil0" x="392" y="209" width="70.4166" height="70.4166"/><rect class="fil0" x="174" y="322" width="70.4166" height="70.4166"/><rect class="fil0" x="283" y="322" width="70.4166" height="70.4166"/><rect class="fil0" x="392" y="322" width="70.4166" height="70.4166"/><rect class="fil0" x="295" y="451" width="70.4166" height="70.4166"/><rect class="fil0" x="404" y="451" width="70.4166" height="70.4166"/><rect class="fil0" x="295" y="564" width="70.4166" height="70.4166"/><rect class="fil0" x="404" y="564" width="70.4166" height="70.4166"/></g><text x="0" y="723" fill="#000000" font-size="5px" font-weight="bold" font-family="'Helvetica Neue', Helvetica, Arial-Unicode, Arial, Sans-serif">Created by Muhajir ila Robbi</text><text x="0" y="728" fill="#000000" font-size="5px" font-weight="bold" font-family="'Helvetica Neue', Helvetica, Arial-Unicode, Arial, Sans-serif">from the Noun Project</text></svg>